<?xml version="1.0" encoding="UTF-8"?>
<svg version="1.1" xmlns="http://www.w3.org/2000/svg" width="638" height="181">
<path d="M0 0 C210.54 0 421.08 0 638 0 C638 59.73 638 119.46 638 181 C427.46 181 216.92 181 0 181 C0 121.27 0 61.54 0 0 Z " fill="#1E1E1E" transform="translate(0,0)"/>
<path d="M0 0 C2.48911671 2.05995866 3.75513445 4.02471968 5 7 C5.13993229 8.82988374 5.21975313 10.66502298 5.25 12.5 C5.54800571 17.19999816 5.54800571 17.19999816 8.875 20.625 C11.94259281 22.0323217 11.94259281 22.0323217 15 23 C15.05422947 24.4370809 15.09289723 25.87475462 15.125 27.3125 C15.14820312 28.11300781 15.17140625 28.91351563 15.1953125 29.73828125 C15 32 15 32 13 35 C13.18232592 38.82748905 13.18232592 38.82748905 15 42 C17.45809998 42.2500773 17.45809998 42.2500773 20 42 C22.31563087 40.11499729 22.31563087 40.11499729 22.25 37 C22.31563087 33.88500271 22.31563087 33.88500271 20 32 C19.8046875 29.3984375 19.8046875 29.3984375 19.875 26.375 C19.89304687 25.37210938 19.91109375 24.36921875 19.9296875 23.3359375 C19.95289062 22.56507812 19.97609375 21.79421875 20 21 C19.40703125 20.86722656 18.8140625 20.73445313 18.203125 20.59765625 C15.25090347 19.79678764 12.70323992 18.41305723 10 17 C10 16.34 10 15.68 10 15 C16.93 15 23.86 15 31 15 C31.70125 16.85625 32.4025 18.7125 33.125 20.625 C35.51639762 26.87415367 38.1377927 32.9915252 40.86328125 39.1015625 C42 42 42 42 42 45 C38.37 45 34.74 45 31 45 C30.9175 46.175625 30.835 47.35125 30.75 48.5625 C29.6648663 58.3597071 26.54065314 67.8448826 23 77 C19.83335334 77.02940458 16.66674253 77.04693315 13.5 77.0625 C12.613125 77.07087891 11.72625 77.07925781 10.8125 77.08789062 C9.9359375 77.09111328 9.059375 77.09433594 8.15625 77.09765625 C7.36025391 77.10289307 6.56425781 77.10812988 5.74414062 77.11352539 C2.14665466 76.96469701 -1.42724082 76.4465949 -5 76 C-5.66 81.28 -6.32 86.56 -7 92 C-21.52 92 -36.04 92 -51 92 C-50.05886641 87.29433205 -48.65840278 83.26418073 -46.9375 78.81640625 C-43.69350422 69.07090225 -43.92160326 57.01409339 -46 47 C-47.44730093 44.67780342 -47.44730093 44.67780342 -49 43 C-49 42.34 -49 41.68 -49 41 C-49.99 40.67 -50.98 40.34 -52 40 C-52.33 37.36 -52.66 34.72 -53 32 C-53.66 32 -54.32 32 -55 32 C-55 31.01 -55 30.02 -55 29 C-55.66 29 -56.32 29 -57 29 C-56.67 24.38 -56.34 19.76 -56 15 C-48.74 15 -41.48 15 -34 15 C-36 19 -36 19 -39.625 20.25 C-40.73875 20.4975 -41.8525 20.745 -43 21 C-42.96519531 21.77085938 -42.93039063 22.54171875 -42.89453125 23.3359375 C-42.86746094 24.33882812 -42.84039062 25.34171875 -42.8125 26.375 C-42.77769531 27.37273437 -42.74289063 28.37046875 -42.70703125 29.3984375 C-42.80371094 30.25695312 -42.90039062 31.11546875 -43 32 C-43.99 32.66 -44.98 33.32 -46 34 C-45.81535634 38.34184202 -45.81535634 38.34184202 -44 42 C-41.40776399 42.14012087 -39.35552112 42.11502154 -36.875 41.3125 C-35.946875 41.1578125 -35.946875 41.1578125 -35 41 C-34.54625 41.474375 -34.0925 41.94875 -33.625 42.4375 C-32.00394602 44.31747028 -32.00394602 44.31747028 -28.9375 44.3125 C-25.87938172 44.29827312 -25.87938172 44.29827312 -24 42 C-23.61713197 38.26703674 -23.85084215 37.22373677 -26 34 C-26.37109375 31.5234375 -26.37109375 31.5234375 -26 29 C-24.28515625 27.2265625 -24.28515625 27.2265625 -22.0625 25.625 C-19.11402055 23.25893624 -17.48623094 21.88288599 -17 18.0625 C-17 17.051875 -17 16.04125 -17 15 C-16.01 15 -15.02 15 -14 15 C-14 19.29 -14 23.58 -14 28 C-14.99 28.33 -15.98 28.66 -17 29 C-16.67039784 34.01535052 -16.67039784 34.01535052 -14 38 C-10.40320934 37.67673447 -10.40320934 37.67673447 -7 37 C-7 34.36 -7 31.72 -7 29 C-7.66 29 -8.32 29 -9 29 C-9 24.71 -9 20.42 -9 16 C-8.34 16 -7.68 16 -7 16 C-6.7525 17.546875 -6.7525 17.546875 -6.5 19.125 C-5.52320625 22.74788427 -3.95873136 24.00849519 -0.875 26.0625 C1.2890625 27.51171875 1.2890625 27.51171875 3 29 C3.5 32.375 3.5 32.375 3 35 C2.34 35 1.68 35 1 35 C0.979375 36.299375 0.95875 37.59875 0.9375 38.9375 C0.92589844 39.66839844 0.91429687 40.39929688 0.90234375 41.15234375 C0.79438816 43.01732141 0.79438816 43.01732141 2 44 C4.32817964 44.36760731 6.6618385 44.70241581 9 45 C9.72735253 41.0136061 9.72735253 41.0136061 10 37 C8.64594139 35.39588754 8.64594139 35.39588754 7 34 C6.95875 32.9275 6.9175 31.855 6.875 30.75 C5.689188 25.66794856 3.09930908 24.59971458 -1.03125 21.7109375 C-3 20 -3 20 -3.5625 16.5625 C-3.376875 15.716875 -3.19125 14.87125 -3 14 C-1.35 14 0.3 14 2 14 C2 12.35 2 10.7 2 9 C1.34 9 0.68 9 0 9 C-0.33 9.99 -0.66 10.98 -1 12 C-4.62498334 12.02893932 -8.24993713 12.04677792 -11.875 12.0625 C-13.42380859 12.07506836 -13.42380859 12.07506836 -15.00390625 12.08789062 C-15.99003906 12.09111328 -16.97617188 12.09433594 -17.9921875 12.09765625 C-19.35899658 12.10551147 -19.35899658 12.10551147 -20.75341797 12.11352539 C-23 12 -23 12 -25 11 C-25 11.99 -25 12.98 -25 14 C-23.68 14.33 -22.36 14.66 -21 15 C-21 16.98 -21 18.96 -21 21 C-22.98 21.66 -24.96 22.32 -27 23 C-27 23.66 -27 24.32 -27 25 C-27.99 25.66 -28.98 26.32 -30 27 C-30.42993881 28.90419084 -30.42993881 28.90419084 -30.4375 31 C-30.6171875 33.15625 -30.6171875 33.15625 -31 35 C-33.0625 36.5 -33.0625 36.5 -35 37 C-37.35800504 34.71568262 -38.88720897 32.9918976 -39.265625 29.6640625 C-39.251535 27.43079795 -39.17460201 25.22617559 -39 23 C-38.06027344 22.68482422 -38.06027344 22.68482422 -37.1015625 22.36328125 C-34.2811773 21.16661939 -32.26142415 20.0855356 -30 18 C-29.11560138 14.73119335 -28.8687551 11.61604867 -28.57421875 8.24609375 C-27.69402004 3.27027658 -25.08698819 -0.08423287 -21 -3 C-13.05260328 -5.21111991 -6.75561349 -4.72892944 0 0 Z " fill="#2B12B0" transform="translate(85,61)"/>
<path d="M0 0 C5.94 0 11.88 0 18 0 C22.01629448 7.91480906 25.80778312 15.87425544 29.375 24 C30.40845264 26.34392708 31.44233154 28.68766624 32.4765625 31.03125 C32.88612183 31.96064392 32.88612183 31.96064392 33.30395508 32.90881348 C35.2576613 37.33678762 37.23273466 41.7548371 39.21755981 46.16894531 C40.69938262 49.46456257 42.17704957 52.76203672 43.65460205 56.05957031 C44.38349038 57.6834557 45.11423788 59.3065079 45.84686279 60.92871094 C46.87697695 63.21063683 47.90013807 65.49556351 48.921875 67.78125 C49.23377777 68.46755493 49.54568054 69.15385986 49.86703491 69.86096191 C51.15465284 72.75703326 52 74.7921992 52 78 C46.06 78 40.12 78 34 78 C28.125 65.375 28.125 65.375 27 62 C15.12 62 3.24 62 -9 62 C-10.98 66.95 -12.96 71.9 -15 77 C-16 78 -16 78 -17.76586914 78.11352539 C-18.51473389 78.10828857 -19.26359863 78.10305176 -20.03515625 78.09765625 C-20.84404297 78.09443359 -21.65292969 78.09121094 -22.48632812 78.08789062 C-23.33646484 78.07951172 -24.18660156 78.07113281 -25.0625 78.0625 C-25.91650391 78.05798828 -26.77050781 78.05347656 -27.65039062 78.04882812 C-29.76695663 78.03700373 -31.88348685 78.01906769 -34 78 C-32.04952259 71.75354534 -29.70736016 65.82425605 -26.97265625 59.8828125 C-26.39436066 58.6114444 -26.39436066 58.6114444 -25.80438232 57.31439209 C-24.56104721 54.58277058 -23.31173882 51.85392586 -22.0625 49.125 C-20.77558768 46.30056369 -19.49037385 43.47535906 -18.20536804 40.65005493 C-17.35127443 38.77221668 -16.49671271 36.89459126 -15.64167786 35.0171814 C-11.98752187 26.98933256 -8.38563017 18.93918996 -4.8125 10.875 C-4.31435791 9.75109863 -3.81621582 8.62719727 -3.30297852 7.46923828 C-2.20073585 4.98004525 -1.10013475 2.49012537 0 0 Z " fill="#E3E3E3" transform="translate(521,58)"/>
<path d="M0 0 C6.27 0 12.54 0 19 0 C21.87224612 6.74380612 24.74146389 13.488881 27.60533142 20.23624992 C28.93518301 23.36908714 30.26636724 26.50134409 31.60058594 29.63232422 C33.13351304 33.22976974 34.66066454 36.82965207 36.1875 40.4296875 C36.90933472 42.12035843 36.90933472 42.12035843 37.64575195 43.84518433 C38.0862085 44.88611237 38.52666504 45.92704041 38.98046875 46.99951172 C39.37129639 47.91884491 39.76212402 48.8381781 40.16479492 49.78536987 C41 52 41 52 41 54 C41.66 54 42.32 54 43 54 C43.16535248 53.47176636 43.33070496 52.94353271 43.50106812 52.39929199 C45.47069281 46.28383718 47.85305309 40.42029176 50.4140625 34.53125 C50.82917084 33.56973022 51.24427917 32.60821045 51.67196655 31.61755371 C52.54253969 29.60330975 53.41493043 27.58985047 54.2890625 25.57714844 C55.63232053 22.48313816 56.96890862 19.38630804 58.3046875 16.2890625 C59.15325613 14.32795633 60.00220085 12.36701284 60.8515625 10.40625 C61.25259186 9.47719849 61.65362122 8.54814697 62.06680298 7.59094238 C62.43743866 6.73915405 62.80807434 5.88736572 63.18994141 5.00976562 C63.51620514 4.25747681 63.84246887 3.50518799 64.17861938 2.73010254 C65 1 65 1 66 0 C68.86267567 -0.07325168 71.700719 -0.09238205 74.5625 -0.0625 C75.36880859 -0.05798828 76.17511719 -0.05347656 77.00585938 -0.04882812 C79.00393756 -0.03700518 81.00197783 -0.01906914 83 0 C82.35632256 3.96828056 81.1301954 7.32001207 79.515625 10.99609375 C78.99871094 12.18025879 78.48179687 13.36442383 77.94921875 14.58447266 C77.38284638 15.86883004 76.81643925 17.1531721 76.25 18.4375 C75.66743976 19.76848604 75.085417 21.09970745 74.50390625 22.43115234 C73.28923585 25.21106067 72.07223159 27.98992939 70.85351562 30.76806641 C68.16267147 36.90622333 65.49673972 43.05516855 62.83239746 49.2048645 C62.02386702 51.06994467 61.21375828 52.93433206 60.40332031 54.79858398 C57.20315668 62.17276297 54.07492703 69.57269465 51 77 C44.73 77 38.46 77 32 77 C26.71553248 64.91105287 21.44142686 52.81766361 16.18164062 40.71795654 C15.40458193 38.93060114 14.62724612 37.14336619 13.84960938 35.35626221 C11.70321968 30.42307658 9.56244678 25.48753376 7.43069458 20.54800415 C6.76957927 19.01834847 6.10655919 17.4895146 5.44161987 15.96151733 C4.51710511 13.83591062 3.59947765 11.70746192 2.68359375 9.578125 C2.16337646 8.37575195 1.64315918 7.17337891 1.10717773 5.93457031 C0 3 0 3 0 0 Z " fill="#E3E3E3" transform="translate(198,58)"/>
<path d="M0 0 C5.45313009 4.70488355 9.44735884 10.3722756 10.05316162 17.74052429 C10.10948629 20.22136539 10.10380034 22.69447755 10.07421875 25.17578125 C10.07138885 26.07732941 10.06855896 26.97887756 10.06564331 27.90774536 C10.05450064 30.77066651 10.02940705 33.63326809 10.00390625 36.49609375 C9.9938688 38.44400588 9.98474429 40.39192294 9.9765625 42.33984375 C9.95458068 47.10038245 9.92009175 51.86068402 9.87890625 56.62109375 C4.59890625 56.62109375 -0.68109375 56.62109375 -6.12109375 56.62109375 C-6.12109375 54.31109375 -6.12109375 52.00109375 -6.12109375 49.62109375 C-6.78109375 49.62109375 -7.44109375 49.62109375 -8.12109375 49.62109375 C-8.39953125 50.51828125 -8.39953125 50.51828125 -8.68359375 51.43359375 C-10.75682048 54.58850399 -13.6362909 55.52956617 -17.12109375 56.62109375 C-19.85651268 56.95265968 -22.27287203 57.14701357 -24.99609375 57.12109375 C-25.69573242 57.11537354 -26.39537109 57.10965332 -27.11621094 57.10375977 C-33.16213823 56.89564196 -37.60008742 55.67655023 -42.12109375 51.62109375 C-46.3957721 46.51233182 -46.75928927 42.01780026 -46.49609375 35.4296875 C-45.96686499 31.46598462 -44.95260166 29.45260166 -42.12109375 26.62109375 C-36.57886538 23.11177292 -31.47575663 21.48531083 -24.91796875 21.5234375 C-23.93828125 21.52666016 -22.95859375 21.52988281 -21.94921875 21.53320312 C-20.9334375 21.54158203 -19.91765625 21.54996094 -18.87109375 21.55859375 C-17.32421875 21.56536133 -17.32421875 21.56536133 -15.74609375 21.57226562 C-13.20436802 21.58403287 -10.66276056 21.60047364 -8.12109375 21.62109375 C-9.21111024 16.70409969 -9.21111024 16.70409969 -12.05859375 12.74609375 C-17.18444585 9.95017442 -22.42701283 10.03727986 -28.12109375 10.62109375 C-30.67147994 11.48123872 -32.95923884 12.50425069 -35.34375 13.74609375 C-37.12109375 14.62109375 -37.12109375 14.62109375 -39.12109375 14.62109375 C-39.98736774 13.02343272 -40.8387584 11.41769431 -41.68359375 9.80859375 C-42.15925781 8.91527344 -42.63492187 8.02195312 -43.125 7.1015625 C-44.12109375 4.62109375 -44.12109375 4.62109375 -43.12109375 1.62109375 C-41.23046875 0.48828125 -41.23046875 0.48828125 -38.87109375 -0.50390625 C-38.1028125 -0.83648437 -37.33453125 -1.1690625 -36.54296875 -1.51171875 C-26.18682376 -5.21988679 -9.48362458 -5.98876472 0 0 Z " fill="#E2E2E2" transform="translate(428.12109375,79.37890625)"/>
<path d="M0 0 C5.61 0 11.22 0 17 0 C22.96952071 12.41031936 27.95486793 25.19255049 33 38 C35.72327808 34.7245226 37.24239857 31.37479203 38.84765625 27.44140625 C39.1050206 26.81523911 39.36238495 26.18907196 39.62754822 25.54393005 C40.44464099 23.55229648 41.25365323 21.55749465 42.0625 19.5625 C42.60949956 18.22569591 43.15702058 16.88910507 43.70507812 15.55273438 C45.82475804 10.37695537 47.92280084 5.19299791 50 0 C55.61 0 61.22 0 67 0 C64.51270214 8.04662676 61.1994866 15.67742326 57.8125 23.375 C56.64531703 26.04217568 55.48077402 28.71050059 54.31640625 31.37890625 C53.88761673 32.36019753 53.88761673 32.36019753 53.45016479 33.36131287 C50.65358447 39.77102747 47.94183967 46.21539939 45.27270508 52.67919922 C43.10355602 57.89644398 43.10355602 57.89644398 42 59 C40.65732587 59.08631874 39.31025678 59.10706473 37.96484375 59.09765625 C37.15595703 59.09443359 36.34707031 59.09121094 35.51367188 59.08789062 C34.66353516 59.07951172 33.81339844 59.07113281 32.9375 59.0625 C32.08349609 59.05798828 31.22949219 59.05347656 30.34960938 59.04882812 C28.23304337 59.03700373 26.11651315 59.01906769 24 59 C19.10309088 48.67393397 14.67613171 38.18415019 10.3125 27.625 C9.31430526 25.21626535 8.31538401 22.80783333 7.31620789 20.39950562 C6.701062 18.91610679 6.08660165 17.4324234 5.47297668 15.94839478 C5.19225815 15.27013641 4.91153961 14.59187805 4.62231445 13.89306641 C4.35399811 13.24267395 4.08568176 12.59228149 3.80923462 11.92218018 C3.26257975 10.62370736 2.70040892 9.33167421 2.12411499 8.04608154 C0.83827221 5.17187794 0 3.189371 0 0 Z " fill="#E3E3E3" transform="translate(313,76)"/>
<path d="M0 0 C0.763125 1.010625 1.52625 2.02125 2.3125 3.0625 C5.6064554 6.55121369 8.8283429 6.61117491 13.5 6.8125 C18.73623897 6.66853266 18.73623897 6.66853266 23.30859375 4.41796875 C24.78744943 2.67667825 25.95922108 1.02977779 27 -1 C31.75829674 -0.38602623 38.5106969 1.5106969 42 5 C42.04063832 6.66617115 42.042721 8.33388095 42 10 C41.34 10 40.68 10 40 10 C39.40274427 16.35745539 39.7260122 21.59762509 43.08984375 27.1484375 C46.84866157 30.79195416 51.9737751 31.30258123 57 32 C57 33.98 57 35.96 57 38 C49.41 38 41.82 38 34 38 C33.34 35.36 32.68 32.72 32 30 C30.00064306 27.66468542 30.00064306 27.66468542 28 26 C28 25.34 28 24.68 28 24 C27.0925 23.71125 26.185 23.4225 25.25 23.125 C22 22 22 22 20.1328125 20.94921875 C14.9900547 18.66040896 8.68453856 19.35681255 3.5625 21.3125 C2.716875 21.869375 1.87125 22.42625 1 23 C0.236875 23.495 -0.52625 23.99 -1.3125 24.5 C-3.27492284 25.99316112 -3.27492284 25.99316112 -4 29 C-4.66 29 -5.32 29 -6 29 C-6.2165625 30.11375 -6.2165625 30.11375 -6.4375 31.25 C-6.90031411 33.51264678 -7.43986518 35.7594607 -8 38 C-15.26 38 -22.52 38 -30 38 C-30 36.02 -30 34.04 -30 32 C-27.15664926 30.74558056 -25.1396553 30.00290949 -22 29.9375 C-18.37950542 28.80609544 -18.02520401 27.95406606 -16.1875 24.75 C-13.64663806 19.84917892 -12.65466019 15.88596687 -13.6875 10.4375 C-14.20710975 6.31480683 -14.20710975 6.31480683 -12.4375 3.625 C-4.41132075 -1.72578616 -4.41132075 -1.72578616 0 0 Z " fill="#2A13AD" transform="translate(60,34)"/>
<path d="M0 0 C2.415452 1.21115704 4.75356262 2.47651478 7.0625 3.87890625 C7.0625 4.53890625 7.0625 5.19890625 7.0625 5.87890625 C7.990625 6.25015625 7.990625 6.25015625 8.9375 6.62890625 C11.52525992 8.15111797 12.11842658 9.046686 13.0625 11.87890625 C13.0625 13.85890625 13.0625 15.83890625 13.0625 17.87890625 C20.6525 17.87890625 28.2425 17.87890625 36.0625 17.87890625 C36.0625 15.89890625 36.0625 13.91890625 36.0625 11.87890625 C36.7225 11.87890625 37.3825 11.87890625 38.0625 11.87890625 C38.42673727 17.2210529 38.42673727 17.2210529 36.85620117 20.05761719 C35.0625 21.87890625 35.0625 21.87890625 32.79418945 22.33300781 C31.93011475 22.31206055 31.06604004 22.29111328 30.17578125 22.26953125 C29.23798828 22.25664063 28.30019531 22.24375 27.33398438 22.23046875 C26.35751953 22.19695312 25.38105469 22.1634375 24.375 22.12890625 C23.38693359 22.11085938 22.39886719 22.0928125 21.38085938 22.07421875 C18.94043158 22.02706072 16.50195231 21.96126667 14.0625 21.87890625 C14.0625 22.53890625 14.0625 23.19890625 14.0625 23.87890625 C15.42375 24.31203125 15.42375 24.31203125 16.8125 24.75390625 C17.885 25.12515625 18.9575 25.49640625 20.0625 25.87890625 C21.13371094 26.23855469 21.13371094 26.23855469 22.2265625 26.60546875 C24.0625 27.87890625 24.0625 27.87890625 24.6015625 30.41015625 C24.62992187 31.38984375 24.65828125 32.36953125 24.6875 33.37890625 C24.63651089 37.63301666 24.63651089 37.63301666 27.0625 40.87890625 C27.396228 44.01594941 27.59099028 46.04444791 25.875 48.75390625 C23.38213619 50.30120103 21.94282665 50.38296341 19.0625 49.87890625 C17.1875 48.25390625 17.1875 48.25390625 16.0625 45.87890625 C16.48803191 40.45337434 16.48803191 40.45337434 18.0625 38.87890625 C18.29442865 37.36421177 18.47465238 35.84136063 18.625 34.31640625 C18.75068359 33.07697266 18.75068359 33.07697266 18.87890625 31.8125 C18.93949219 31.17441406 19.00007813 30.53632812 19.0625 29.87890625 C18.45792969 29.74484375 17.85335937 29.61078125 17.23046875 29.47265625 C14.17335424 28.63539246 11.32171572 27.13812197 9.0625 24.87890625 C8.93008858 23.15167283 8.83173148 21.42177847 8.75 19.69140625 C8.3160073 14.690774 7.56995797 11.6632688 4.0625 7.87890625 C-1.27045316 3.90533331 -5.36788652 3.11024946 -11.9375 3.87890625 C-16.30236692 4.71830373 -19.13516183 6.22543565 -21.93359375 9.76953125 C-23.29531772 12.63074114 -23.44048593 15.29645872 -23.75 18.44140625 C-24.42951547 24.3350256 -24.42951547 24.3350256 -26.76171875 26.83203125 C-29.47303736 28.52599691 -31.69701108 29.87890625 -34.9375 29.87890625 C-34.76500027 36.11578161 -34.76500027 36.11578161 -31.875 41.44140625 C-31.235625 41.91578125 -30.59625 42.39015625 -29.9375 42.87890625 C-28.4525 42.38390625 -28.4525 42.38390625 -26.9375 41.87890625 C-26.9375 39.23890625 -26.9375 36.59890625 -26.9375 33.87890625 C-25.6175 33.21890625 -24.2975 32.55890625 -22.9375 31.87890625 C-22.9375 31.21890625 -22.9375 30.55890625 -22.9375 29.87890625 C-20.9575 29.21890625 -18.9775 28.55890625 -16.9375 27.87890625 C-16.9375 25.89890625 -16.9375 23.91890625 -16.9375 21.87890625 C-18.5875 21.54890625 -20.2375 21.21890625 -21.9375 20.87890625 C-21.6075 19.22890625 -21.2775 17.57890625 -20.9375 15.87890625 C-20.2775 16.53890625 -19.6175 17.19890625 -18.9375 17.87890625 C-16.60932795 18.15656041 -16.60932795 18.15656041 -13.9296875 18.07421875 C-12.94355469 18.06777344 -11.95742187 18.06132813 -10.94140625 18.0546875 C-9.90886719 18.03792969 -8.87632813 18.02117187 -7.8125 18.00390625 C-6.77222656 17.99488281 -5.73195312 17.98585938 -4.66015625 17.9765625 C-2.08570908 17.95294372 0.48828212 17.92000774 3.0625 17.87890625 C3.3925 17.21890625 3.7225 16.55890625 4.0625 15.87890625 C4.7225 15.87890625 5.3825 15.87890625 6.0625 15.87890625 C6.0625 17.52890625 6.0625 19.17890625 6.0625 20.87890625 C4.4125 20.87890625 2.7625 20.87890625 1.0625 20.87890625 C1.80878759 25.79127896 1.80878759 25.79127896 4.94140625 29.43359375 C5.66199219 29.91054687 6.38257813 30.3875 7.125 30.87890625 C10.96981309 33.45825029 10.96981309 33.45825029 11.875 37.56640625 C11.936875 38.65953125 11.99875 39.75265625 12.0625 40.87890625 C13.04270375 41.89831815 14.04053008 42.90136981 15.0625 43.87890625 C15.53106135 47.62739702 15.21752531 48.64636829 13.0625 51.87890625 C9.5625 52.19140625 9.5625 52.19140625 6.0625 51.87890625 C4.0625 49.87890625 4.0625 49.87890625 3.875 46.87890625 C4.0625 43.87890625 4.0625 43.87890625 5.0625 41.87890625 C5.7225 41.87890625 6.3825 41.87890625 7.0625 41.87890625 C6.30718558 36.94487759 6.30718558 36.94487759 3.1484375 33.2890625 C2.41882813 32.80308594 1.68921875 32.31710938 0.9375 31.81640625 C-1.2265625 30.3671875 -1.2265625 30.3671875 -2.9375 28.87890625 C-3.4375 25.50390625 -3.4375 25.50390625 -2.9375 22.87890625 C-3.5975 22.87890625 -4.2575 22.87890625 -4.9375 22.87890625 C-4.9375 27.16890625 -4.9375 31.45890625 -4.9375 35.87890625 C-4.2775 35.87890625 -3.6175 35.87890625 -2.9375 35.87890625 C-2.1875 38.62890625 -2.1875 38.62890625 -1.9375 41.87890625 C-3.5625 44.31640625 -3.5625 44.31640625 -5.9375 45.87890625 C-9.32904295 45.7174042 -10.52046757 45.29593868 -12.9375 42.87890625 C-13.0625 39.25390625 -13.0625 39.25390625 -12.9375 35.87890625 C-12.2775 35.54890625 -11.6175 35.21890625 -10.9375 34.87890625 C-10.46795739 31.83309356 -10.46795739 31.83309356 -10.3125 28.31640625 C-10.23773438 27.11886719 -10.16296875 25.92132813 -10.0859375 24.6875 C-10.03695312 23.76066406 -9.98796875 22.83382812 -9.9375 21.87890625 C-10.9275 21.87890625 -11.9175 21.87890625 -12.9375 21.87890625 C-12.7828125 23.48765625 -12.7828125 23.48765625 -12.625 25.12890625 C-12.9375 28.87890625 -12.9375 28.87890625 -15.3125 31.12890625 C-16.17875 31.70640625 -17.045 32.28390625 -17.9375 32.87890625 C-18.5975 33.86890625 -19.2575 34.85890625 -19.9375 35.87890625 C-20.5975 35.87890625 -21.2575 35.87890625 -21.9375 35.87890625 C-21.0770861 40.2112034 -21.0770861 40.2112034 -18.9375 43.87890625 C-18.64571692 46.65084554 -18.57383684 48.2930045 -20.0625 50.69140625 C-22.80905972 52.43089407 -24.75596974 52.27659753 -27.9375 51.87890625 C-28.4015625 51.36457031 -28.865625 50.85023437 -29.34375 50.3203125 C-30.84618505 48.62670915 -30.84618505 48.62670915 -33.09375 48.9453125 C-34.25390625 49.19087891 -34.25390625 49.19087891 -35.4375 49.44140625 C-37.83984375 49.796875 -37.83984375 49.796875 -39.9375 49.87890625 C-42 48.25390625 -42 48.25390625 -42.9375 45.87890625 C-43.125 43.12890625 -43.125 43.12890625 -42.9375 40.87890625 C-41.6175 40.21890625 -40.2975 39.55890625 -38.9375 38.87890625 C-38.9375 35.24890625 -38.9375 31.61890625 -38.9375 27.87890625 C-36.88671875 26.90234375 -34.8359375 25.92578125 -32.78515625 24.94921875 C-30.77417541 24.01040855 -30.77417541 24.01040855 -29.9375 21.87890625 C-36.8675 21.87890625 -43.7975 21.87890625 -50.9375 21.87890625 C-50.9375 20.55890625 -50.9375 19.23890625 -50.9375 17.87890625 C-43.6775 17.87890625 -36.4175 17.87890625 -28.9375 17.87890625 C-28.6075 16.22890625 -28.2775 14.57890625 -27.9375 12.87890625 C-27.61266582 11.54347686 -27.2824145 10.20929074 -26.9375 8.87890625 C-26.2775 8.87890625 -25.6175 8.87890625 -24.9375 8.87890625 C-24.8446875 8.01265625 -24.8446875 8.01265625 -24.75 7.12890625 C-23.58800724 3.91108015 -21.73170307 2.78404471 -18.9375 0.87890625 C-12.77328022 -1.98268663 -6.40312193 -2.44374467 0 0 Z " fill="#1E1A37" transform="translate(80.9375,54.12109375)"/>
<path d="M0 0 C5.61 0 11.22 0 17 0 C17 25.41 17 50.82 17 77 C11.39 77 5.78 77 0 77 C0 51.59 0 26.18 0 0 Z " fill="#E6E6E6" transform="translate(582,58)"/>
<path d="M0 0 C5.61 0 11.22 0 17 0 C17 19.47 17 38.94 17 59 C11.39 59 5.78 59 0 59 C0 39.53 0 20.06 0 0 Z " fill="#E6E6E6" transform="translate(288,76)"/>
<path d="M0 0 C1.98 0 3.96 0 6 0 C6 48.51 6 97.02 6 147 C4.02 147 2.04 147 0 147 C0 98.49 0 49.98 0 0 Z " fill="#E6E6E6" transform="translate(160,19)"/>
<path d="M0 0 C2.48911671 2.05995866 3.75513445 4.02471968 5 7 C5.13993229 8.82988374 5.21975313 10.66502298 5.25 12.5 C5.54800571 17.19999816 5.54800571 17.19999816 8.875 20.625 C11.94259281 22.0323217 11.94259281 22.0323217 15 23 C15.05422947 24.4370809 15.09289723 25.87475462 15.125 27.3125 C15.14820313 28.11300781 15.17140625 28.91351563 15.1953125 29.73828125 C15 32 15 32 13 35 C13.31506627 38.14221967 13.31506627 38.14221967 14 41 C15.98 41.66 17.96 42.32 20 43 C20 43.33 20 43.66 20 44 C17.94921875 44.22786458 15.8984375 44.45572917 13.84765625 44.68359375 C11.98859771 44.81886614 11.98859771 44.81886614 11 46 C9.31391034 46.07205511 7.62499341 46.08386068 5.9375 46.0625 C5.01839844 46.05347656 4.09929687 46.04445312 3.15234375 46.03515625 C2.44207031 46.02355469 1.73179688 46.01195312 1 46 C1 45.01 1 44.02 1 43 C1.33 43.33 1.66 43.66 2 44 C4.32817964 44.36760731 6.6618385 44.70241581 9 45 C9.72735253 41.0136061 9.72735253 41.0136061 10 37 C8.64594139 35.39588754 8.64594139 35.39588754 7 34 C6.95875 32.9275 6.9175 31.855 6.875 30.75 C5.689188 25.66794856 3.09930908 24.59971458 -1.03125 21.7109375 C-3 20 -3 20 -3.5625 16.5625 C-3.376875 15.716875 -3.19125 14.87125 -3 14 C-1.35 14 0.3 14 2 14 C2 12.35 2 10.7 2 9 C1.34 9 0.68 9 0 9 C-0.33 9.99 -0.66 10.98 -1 12 C-4.62498334 12.02893932 -8.24993713 12.04677792 -11.875 12.0625 C-13.42380859 12.07506836 -13.42380859 12.07506836 -15.00390625 12.08789062 C-15.99003906 12.09111328 -16.97617188 12.09433594 -17.9921875 12.09765625 C-19.35899658 12.10551147 -19.35899658 12.10551147 -20.75341797 12.11352539 C-23 12 -23 12 -25 11 C-25 11.99 -25 12.98 -25 14 C-23.68 14.33 -22.36 14.66 -21 15 C-21 16.98 -21 18.96 -21 21 C-22.98 21.66 -24.96 22.32 -27 23 C-27 23.66 -27 24.32 -27 25 C-27.99 25.66 -28.98 26.32 -30 27 C-30.42993881 28.90419084 -30.42993881 28.90419084 -30.4375 31 C-30.6171875 33.15625 -30.6171875 33.15625 -31 35 C-33.0625 36.5 -33.0625 36.5 -35 37 C-37.35800504 34.71568262 -38.88720897 32.9918976 -39.265625 29.6640625 C-39.251535 27.43079795 -39.17460201 25.22617559 -39 23 C-38.37351563 22.78988281 -37.74703125 22.57976562 -37.1015625 22.36328125 C-34.2811773 21.16661939 -32.26142415 20.0855356 -30 18 C-29.11560138 14.73119335 -28.8687551 11.61604867 -28.57421875 8.24609375 C-27.69402004 3.27027658 -25.08698819 -0.08423287 -21 -3 C-13.05260328 -5.21111991 -6.75561349 -4.72892944 0 0 Z " fill="#2A14A2" transform="translate(85,61)"/>
<path d="M0 0 C10.23 0 20.46 0 31 0 C31 4.29 31 8.58 31 13 C20.77 13 10.54 13 0 13 C0 8.71 0 4.42 0 0 Z " fill="#E6E6E6" transform="translate(451,98)"/>
<path d="M0 0 C0.66 0 1.32 0 2 0 C3.5734726 3.64493255 5.13984244 7.29282581 6.69970703 10.94360352 C7.23129273 12.18499721 7.76480845 13.4255663 8.30029297 14.6652832 C9.06985843 16.44784809 9.8319069 18.23365229 10.59375 20.01953125 C11.05458984 21.09307861 11.51542969 22.16662598 11.99023438 23.27270508 C13 26 13 26 13 29 C5.08 29 -2.84 29 -11 29 C-7.625 17.75 -7.625 17.75 -5.95703125 13.8671875 C-5.60576172 13.0421875 -5.25449219 12.2171875 -4.89257812 11.3671875 C-4.53615234 10.54476562 -4.17972656 9.72234375 -3.8125 8.875 C-3.44447266 8.01390625 -3.07644531 7.1528125 -2.69726562 6.265625 C-1.80293562 4.17498344 -0.90382824 2.08654837 0 0 Z " fill="#292929" transform="translate(529,77)"/>
<path d="M0 0 C7.26 0 14.52 0 22 0 C20 4 20 4 16.375 5.25 C15.26125 5.4975 14.1475 5.745 13 6 C13.03480469 6.77085938 13.06960937 7.54171875 13.10546875 8.3359375 C13.13253906 9.33882812 13.15960938 10.34171875 13.1875 11.375 C13.22230469 12.37273437 13.25710937 13.37046875 13.29296875 14.3984375 C13.19628906 15.25695312 13.09960938 16.11546875 13 17 C12.01 17.66 11.02 18.32 10 19 C10.18464366 23.34184202 10.18464366 23.34184202 12 27 C14.59223601 27.14012087 16.64447888 27.11502154 19.125 26.3125 C19.74375 26.209375 20.3625 26.10625 21 26 C21.45375 26.474375 21.9075 26.94875 22.375 27.4375 C23.98866594 29.30950231 23.98866594 29.30950231 27 29.3125 C30.17941514 29.21659125 30.17941514 29.21659125 33 27 C32.34 28.32 31.68 29.64 31 31 C23.47232472 31.25092251 23.47232472 31.25092251 21 29.9375 C17.59361451 28.3407568 14.63044104 29.28581488 11 30 C10.67 30.66 10.34 31.32 10 32 C7 28.25 7 28.25 7 26 C6.01 25.67 5.02 25.34 4 25 C3.67 22.36 3.34 19.72 3 17 C2.34 17 1.68 17 1 17 C1 16.01 1 15.02 1 14 C0.34 14 -0.32 14 -1 14 C-0.67 9.38 -0.34 4.76 0 0 Z " fill="#2A12B1" transform="translate(29,76)"/>
<path d="M0 0 C3.52181534 2.29683609 5.59754202 4.32484491 7.875 7.875 C8.27510038 10.68583181 8.12148601 13.01576228 7.875 15.875 C5.895 15.875 3.915 15.875 1.875 15.875 C1.875 15.545 1.875 15.215 1.875 14.875 C3.525 14.875 5.175 14.875 6.875 14.875 C6.875 13.225 6.875 11.575 6.875 9.875 C6.215 9.875 5.555 9.875 4.875 9.875 C4.545 10.865 4.215 11.855 3.875 12.875 C0.25001666 12.90393932 -3.37493713 12.92177792 -7 12.9375 C-8.54880859 12.95006836 -8.54880859 12.95006836 -10.12890625 12.96289062 C-11.11503906 12.96611328 -12.10117188 12.96933594 -13.1171875 12.97265625 C-14.02839355 12.97789307 -14.93959961 12.98312988 -15.87841797 12.98852539 C-18.125 12.875 -18.125 12.875 -20.125 11.875 C-20.125 13.195 -20.125 14.515 -20.125 15.875 C-20.785 15.875 -21.445 15.875 -22.125 15.875 C-22.75985431 10.79616553 -21.46150066 7.74856294 -18.67578125 3.64453125 C-13.81855836 -1.89784146 -6.57123725 -2.36564541 0 0 Z " fill="#1E193D" transform="translate(80.125,60.125)"/>
<path d="M0 0 C2.87029869 1.79393668 4.49131638 2.98263276 6 6 C6.375 9.3125 6.375 9.3125 6 13 C3.8272578 15.63016161 2.05326212 17.47336894 -1 19 C-5.99691647 19.37712577 -8.99067725 19.09290612 -13 16 C-15.4915904 12.2626144 -15.45793285 10.42668417 -15 6 C-10.96954107 -0.18003703 -7.06173502 -0.91473252 0 0 Z " fill="#E0E0E0" transform="translate(301,49)"/>
<path d="M0 0 C1.18239258 0.02707031 1.18239258 0.02707031 2.38867188 0.0546875 C4.32214261 0.10155952 6.25498285 0.1732959 8.1875 0.25 C8.53180248 7.72518942 8.53180248 7.72518942 6.98046875 10.08984375 C1.87039028 13.5835957 -2.56039911 15.33256222 -8.8125 14.25 C-11.97716092 11.94243475 -13.50410563 10.51441691 -14.4375 6.6875 C-12.59843353 -0.48485922 -6.07957487 -0.26499404 0 0 Z " fill="#232323" transform="translate(411.8125,110.75)"/>
<path d="M0 0 C2.31 0 4.62 0 7 0 C7 1.98 7 3.96 7 6 C5.02 6.66 3.04 7.32 1 8 C1 8.66 1 9.32 1 10 C0.01 10.66 -0.98 11.32 -2 12 C-2.42993881 13.90419084 -2.42993881 13.90419084 -2.4375 16 C-2.6171875 18.15625 -2.6171875 18.15625 -3 20 C-5.0625 21.5 -5.0625 21.5 -7 22 C-9.35800504 19.71568262 -10.88720897 17.9918976 -11.265625 14.6640625 C-11.251535 12.43079795 -11.17460201 10.22617559 -11 8 C-8.29120665 6.64560332 -5.99066732 6.93498549 -3 7 C-3 6.34 -3 5.68 -3 5 C-2.34 4.67 -1.68 4.34 -1 4 C-0.34786708 1.97536745 -0.34786708 1.97536745 0 0 Z " fill="#2A14A5" transform="translate(57,76)"/>
<path d="M0 0 C0.33 0 0.66 0 1 0 C1 4.62 1 9.24 1 14 C0.01 14.33 -0.98 14.66 -2 15 C0.9254644 15.2236068 0.9254644 15.2236068 3 14 C3 9.38 3 4.76 3 0 C4.98 0 6.96 0 9 0 C9.12375 1.093125 9.2475 2.18625 9.375 3.3125 C9.75464801 7.07381802 9.75464801 7.07381802 12 10 C8.125 8.125 8.125 8.125 7 7 C6.95919217 5.00041636 6.95745644 2.99954746 7 1 C6.34 1 5.68 1 5 1 C5 5.29 5 9.58 5 14 C5.66 14 6.32 14 7 14 C7.75 16.75 7.75 16.75 8 20 C6.375 22.4375 6.375 22.4375 4 24 C0.60845705 23.83849795 -0.58296757 23.41703243 -3 21 C-3.125 17.375 -3.125 17.375 -3 14 C-2.34 13.67 -1.68 13.34 -1 13 C-0.53045739 9.95418731 -0.53045739 9.95418731 -0.375 6.4375 C-0.30023438 5.23996094 -0.22546875 4.04242188 -0.1484375 2.80859375 C-0.09945312 1.88175781 -0.05046875 0.95492187 0 0 Z " fill="#211851" transform="translate(71,76)"/>
<path d="M0 0 C2.4375 1.0625 2.4375 1.0625 5 3 C5.41434251 5.32031805 5.74889902 7.65639085 6 10 C6.98020375 11.0194119 7.97803008 12.02246356 9 13 C9.46856135 16.74849077 9.15502531 17.76746204 7 21 C3.5 21.3125 3.5 21.3125 0 21 C-2 19 -2 19 -2.1875 16 C-2 13 -2 13 -1 11 C-0.34 11 0.32 11 1 11 C-0.28139327 5.28136948 -0.28139327 5.28136948 -4 1 C-2.68 1.33 -1.36 1.66 0 2 C0 1.34 0 0.68 0 0 Z " fill="#1E1B30" transform="translate(87,85)"/>
<path d="M0 0 C3.10039543 1.75494081 5.48825667 3.48825667 8 6 C8 6.99 8 7.98 8 9 C1.07 9 -5.86 9 -13 9 C-11 3 -11 3 -9.3125 1.125 C-5.97242249 -0.49990257 -3.67514624 -0.44355213 0 0 Z " fill="#2A12B1" transform="translate(76,63)"/>
<path d="M0 0 C7.26 0 14.52 0 22 0 C21.34 1.32 20.68 2.64 20 4 C19.34 3.67 18.68 3.34 18 3 C18.33 2.67 18.66 2.34 19 2 C13.39 1.67 7.78 1.34 2 1 C2.309375 3.31 2.61875 5.62 2.9375 8 C3.64979415 13.33040171 4.3463753 18.66206496 5 24 C5.99 24 6.98 24 8 24 C8 22.02 8 20.04 8 18 C8.66 18.33 9.32 18.66 10 19 C10.37400786 21.32716 10.70764733 23.66117862 11 26 C12.03756992 27.2602065 12.03756992 27.2602065 14.3125 27.125 C16.94521044 27.12073206 16.94521044 27.12073206 19.125 26.3125 C19.74375 26.209375 20.3625 26.10625 21 26 C21.45375 26.474375 21.9075 26.94875 22.375 27.4375 C23.98866594 29.30950231 23.98866594 29.30950231 27 29.3125 C30.17941514 29.21659125 30.17941514 29.21659125 33 27 C32.34 28.32 31.68 29.64 31 31 C23.47232472 31.25092251 23.47232472 31.25092251 21 29.9375 C17.59361451 28.3407568 14.63044104 29.28581488 11 30 C10.67 30.66 10.34 31.32 10 32 C7 28.25 7 28.25 7 26 C6.01 25.67 5.02 25.34 4 25 C3.67 22.36 3.34 19.72 3 17 C2.34 17 1.68 17 1 17 C1 16.01 1 15.02 1 14 C0.34 14 -0.32 14 -1 14 C-0.67 9.38 -0.34 4.76 0 0 Z " fill="#281881" transform="translate(29,76)"/>
<path d="M0 0 C2.46122429 2.03687527 3.88419803 3.99591777 5 7 C5.125 10.25 5.125 10.25 5 13 C4.01 13.495 4.01 13.495 3 14 C2.938125 12.96875 2.87625 11.9375 2.8125 10.875 C1.78845462 5.99109127 0.53920596 4.45876946 -3 1 C-6.96001299 -1.2926391 -10.48124428 -1.38954791 -15 -1 C-19.48695799 0.2928523 -21.48345971 1.31593314 -24.3125 5.0625 C-26.50627716 9.45005432 -27.26404286 14.18722764 -28 19 C-28.99 19.33 -29.98 19.66 -31 20 C-31 20.66 -31 21.32 -31 22 C-32.32 21.67 -33.64 21.34 -35 21 C-34.19304688 20.63261719 -33.38609375 20.26523438 -32.5546875 19.88671875 C-29.72904579 18.22429636 -29.72904579 18.22429636 -29.3203125 15.14453125 C-29.25585938 14.04496094 -29.19140625 12.94539063 -29.125 11.8125 C-28.42844214 5.87517347 -27.00092538 2.72458535 -22.94921875 -1.609375 C-15.91359632 -6.62877697 -6.51067853 -4.55747497 0 0 Z " fill="#29197F" transform="translate(85,61)"/>
<path d="M0 0 C1.1034375 0.15339844 2.206875 0.30679688 3.34375 0.46484375 C8.3851341 1.09501676 13.42686479 1.33760084 18.5 1.5625 C19.4178125 1.60568359 20.335625 1.64886719 21.28125 1.69335938 C23.52072061 1.79833456 25.76028092 1.90049248 28 2 C28 2.33 28 2.66 28 3 C19.09 3 10.18 3 1 3 C0.855625 5.289375 0.71125 7.57875 0.5625 9.9375 C0.125 16.875 0.125 16.875 -1 18 C-2.41225046 18.0928726 -3.82908934 18.11746772 -5.24438477 18.11352539 C-6.14524307 18.11344986 -7.04610138 18.11337433 -7.97425842 18.11329651 C-8.95341721 18.10813522 -9.93257599 18.10297394 -10.94140625 18.09765625 C-11.93881332 18.0962413 -12.9362204 18.09482635 -13.96385193 18.09336853 C-17.16343124 18.08775114 -20.36294169 18.07519571 -23.5625 18.0625 C-25.72591045 18.05748724 -27.88932199 18.05292395 -30.05273438 18.04882812 C-35.36851325 18.03777607 -40.68425171 18.02102104 -46 18 C-46 17.67 -46 17.34 -46 17 C-31.48 17 -16.96 17 -2 17 C-2 13.7 -2 10.4 -2 7 C-1 2.875 -1 2.875 0 0 Z " fill="#1F174A" transform="translate(80,136)"/>
<path d="M0 0 C0.66 0.33 1.32 0.66 2 1 C1.34 6.28 0.68 11.56 0 17 C-14.52 17 -29.04 17 -44 17 C-43.67 15.35 -43.34 13.7 -43 12 C-42.67 12.99 -42.34 13.98 -42 15 C-28.47 15 -14.94 15 -1 15 C-1 10.38 -1 5.76 -1 1 C-0.67 0.67 -0.34 0.34 0 0 Z " fill="#2A1890" transform="translate(78,136)"/>
<path d="M0 0 C0 0.66 0 1.32 0 2 C0.66 2.33 1.32 2.66 2 3 C0.625 5 0.625 5 -1 7 C-1.66 7 -2.32 7 -3 7 C-2.1395861 11.33229715 -2.1395861 11.33229715 0 15 C0.04063832 16.66617115 0.042721 18.33388095 0 20 C-0.66 20.33 -1.32 20.66 -2 21 C-2.33 18.36 -2.66 15.72 -3 13 C-3.66 13 -4.32 13 -5 13 C-5 10.69 -5 8.38 -5 6 C-5.66 6 -6.32 6 -7 6 C-7 8.31 -7 10.62 -7 13 C-7.33 13 -7.66 13 -8 13 C-8 10.36 -8 7.72 -8 5 C-6.68 4.34 -5.36 3.68 -4 3 C-4 2.34 -4 1.68 -4 1 C-2 0 -2 0 0 0 Z " fill="#221A4D" transform="translate(62,83)"/>
<path d="M0 0 C1 2 1 2 0.9375 4 C0 6 0 6 -2.6875 7.25 C-5.92282373 7.98252613 -8.69690238 8.15729036 -12 8 C-12 9.32 -12 10.64 -12 12 C-5.4 12 1.2 12 8 12 C8 10.02 8 8.04 8 6 C8.66 6 9.32 6 10 6 C10 5.01 10 4.02 10 3 C10.99 2.67 11.98 2.34 13 2 C13 2.66 13 3.32 13 4 C12.34 4 11.68 4 11 4 C10.855625 4.7425 10.71125 5.485 10.5625 6.25 C10.09968589 8.51264678 9.56013482 10.7594607 9 13 C1.74 13 -5.52 13 -13 13 C-13 11.02 -13 9.04 -13 7 C-10.18359075 5.75746651 -7.89036956 4.9871023 -4.8125 4.625 C-1.8630604 4.30991594 -1.8630604 4.30991594 -0.625 1.9375 C-0.41875 1.298125 -0.2125 0.65875 0 0 Z " fill="#29178D" transform="translate(43,59)"/>
<path d="M0 0 C0.66 0.33 1.32 0.66 2 1 C4.34284722 12.71423612 3.96227122 25.7001895 0 37 C-1.60546875 39.36328125 -1.60546875 39.36328125 -3 41 C-3.29475544 37.75769015 -3.08128979 36.14903128 -1.5 33.25 C1.1615415 27.26015402 0.31080786 20.47683536 0.1875 14.0625 C0.17242992 12.69728034 0.15874561 11.33204465 0.14648438 9.96679688 C0.11126164 6.64411904 0.06200041 3.32226819 0 0 Z " fill="#1E1744" transform="translate(38,107)"/>
<path d="M0 0 C0.33 0 0.66 0 1 0 C1 4.62 1 9.24 1 14 C0.01 14.33 -0.98 14.66 -2 15 C-1.01 15.33 -0.02 15.66 1 16 C1 17.32 1 18.64 1 20 C2.32 20 3.64 20 5 20 C5 18.35 5 16.7 5 15 C5.33 15 5.66 15 6 15 C6.125 18.375 6.125 18.375 6 22 C5.34 22.66 4.68 23.32 4 24 C0.70285207 23.67028521 -0.6226839 23.3773161 -3 21 C-3.125 17.375 -3.125 17.375 -3 14 C-2.34 13.67 -1.68 13.34 -1 13 C-0.53045739 9.95418731 -0.53045739 9.95418731 -0.375 6.4375 C-0.30023438 5.23996094 -0.22546875 4.04242188 -0.1484375 2.80859375 C-0.09945312 1.88175781 -0.05046875 0.95492187 0 0 Z " fill="#1F183F" transform="translate(71,76)"/>
<path d="M0 0 C0.66 0 1.32 0 2 0 C2 2.31 2 4.62 2 7 C2.66 7 3.32 7 4 7 C5.49106457 9.98212913 5.11941467 12.71609658 5 16 C4 17 4 17 0.9375 17.0625 C-0.031875 17.041875 -1.00125 17.02125 -2 17 C-2.33 15.02 -2.66 13.04 -3 11 C-2.67 11.66 -2.34 12.32 -2 13 C-0.35 13 1.3 13 3 13 C3 11.68 3 10.36 3 9 C1.35 9 -0.3 9 -2 9 C-1.34 6.03 -0.68 3.06 0 0 Z " fill="#1E1B2A" transform="translate(55,89)"/>
<path d="M0 0 C0.66 0.66 1.32 1.32 2 2 C0.046875 2.13020833 -1.90625 2.26041667 -3.859375 2.390625 C-6.64448493 2.99583736 -6.64448493 2.99583736 -10 7 C-4.72 7 0.56 7 6 7 C6 6.01 6 5.02 6 4 C8 6 8 6 8 9 C1.07 9 -5.86 9 -13 9 C-11 3 -11 3 -9.3125 1.125 C-6.08022518 -0.44745802 -3.54241846 -0.32800171 0 0 Z " fill="#2A1790" transform="translate(76,63)"/>
<path d="M0 0 C1.65 0.99 3.3 1.98 5 3 C4.01 3.33 3.02 3.66 2 4 C2 6.64 2 9.28 2 12 C2.99 12.33 3.98 12.66 5 13 C5 14.32 5 15.64 5 17 C3.35 17 1.7 17 0 17 C-0.33 17.99 -0.66 18.98 -1 20 C-2 19 -2 19 -2.125 16.0625 C-2 13 -2 13 -1 11 C-0.34 11 0.32 11 1 11 C-0.28139327 5.28136948 -0.28139327 5.28136948 -4 1 C-2.68 1.33 -1.36 1.66 0 2 C0 1.34 0 0.68 0 0 Z " fill="#221B4A" transform="translate(87,85)"/>
<path d="M0 0 C3.3 0 6.6 0 10 0 C10 0.33 10 0.66 10 1 C7.03 1 4.06 1 1 1 C1 4.3 1 7.6 1 11 C0.34 11 -0.32 11 -1 11 C-0.938125 11.804375 -0.87625 12.60875 -0.8125 13.4375 C-1.1661683 20.15719775 -3.8329191 26.11827833 -7 32 C-8.38449196 29.23101609 -7.39468725 27.65722101 -6.46166992 24.84375 C-6.22681885 24.1528125 -5.99196777 23.461875 -5.75 22.75 C-3.28838405 15.24271351 -1.49230947 7.76486227 0 0 Z " fill="#1F1847" transform="translate(116,106)"/>
<path d="M0 0 C4.29 0.99 8.58 1.98 13 3 C13 4.98 13 6.96 13 9 C5.41 9 -2.18 9 -10 9 C-10.33 6.36 -10.66 3.72 -11 1 C-10.01 1.495 -10.01 1.495 -9 2 C-9 3.98 -9 5.96 -9 8 C-2.4 8 4.2 8 11 8 C11 6.68 11 5.36 11 4 C9.6696875 4.061875 9.6696875 4.061875 8.3125 4.125 C5.02722987 4.00102754 2.94550705 3.38612096 0 2 C0 1.34 0 0.68 0 0 Z " fill="#2A1890" transform="translate(104,63)"/>
<path d="M0 0 C0.99 0 1.98 0 3 0 C3.33 1.65 3.66 3.3 4 5 C10.6 5.33 17.2 5.66 24 6 C24 6.33 24 6.66 24 7 C17.4 7.33 10.8 7.66 4 8 C3.67 8.99 3.34 9.98 3 11 C2.34 11 1.68 11 1 11 C0.67 7.37 0.34 3.74 0 0 Z " fill="#1E1C26" transform="translate(91,68)"/>
<path d="M0 0 C1.8125 0.0625 1.8125 0.0625 4 1 C4.474375 2.155 4.94875 3.31 5.4375 4.5 C5.953125 5.655 6.46875 6.81 7 8 C9.57732914 9.05167527 9.57732914 9.05167527 12 9 C12 9.33 12 9.66 12 10 C9.94921875 10.22786458 7.8984375 10.45572917 5.84765625 10.68359375 C3.98859771 10.81886614 3.98859771 10.81886614 3 12 C1.31391034 12.07205511 -0.37500659 12.08386068 -2.0625 12.0625 C-2.98160156 12.05347656 -3.90070313 12.04445313 -4.84765625 12.03515625 C-5.55792969 12.02355469 -6.26820312 12.01195313 -7 12 C-7 11.01 -7 10.02 -7 9 C-6.67 9.33 -6.34 9.66 -6 10 C-3.67182036 10.36760731 -1.3381615 10.70241581 1 11 C1.20625 9.741875 1.4125 8.48375 1.625 7.1875 C1.74101563 6.47980469 1.85703125 5.77210937 1.9765625 5.04296875 C2.19577848 2.68244176 2.19577848 2.68244176 0 0 Z " fill="#291599" transform="translate(93,95)"/>
<path d="M0 0 C0.99 0 1.98 0 3 0 C3 4.29 3 8.58 3 13 C2.01 13.495 2.01 13.495 1 14 C1 12.35 1 10.7 1 9 C0.34 9 -0.32 9 -1 9 C-1 9.66 -1 10.32 -1 11 C-2.65 11.33 -4.3 11.66 -6 12 C-5.195625 11.319375 -4.39125 10.63875 -3.5625 9.9375 C-0.57711289 6.51522698 -0.26218749 4.4571874 0 0 Z " fill="#2A1890" transform="translate(68,76)"/>
<path d="M0 0 C3.38023517 0 5.83468937 0.87455622 9 2 C9 3.32 9 4.64 9 6 C7.35 6 5.7 6 4 6 C3.67 6.99 3.34 7.98 3 9 C0.9375 7.3125 0.9375 7.3125 -1 5 C-0.75 2.25 -0.75 2.25 0 0 Z " fill="#221A51" transform="translate(49,96)"/>
<path d="M0 0 C6.93 0 13.86 0 21 0 C21.33 1.98 21.66 3.96 22 6 C21.34 5.67 20.68 5.34 20 5 C20 3.68 20 2.36 20 1 C13.565 1.495 13.565 1.495 7 2 C7.66 3.32 8.32 4.64 9 6 C5.59687262 4.94124926 2.98646769 3.99097846 0 2 C0 1.34 0 0.68 0 0 Z " fill="#26177E" transform="translate(95,76)"/>
<path d="M0 0 C0.33 0.66 0.66 1.32 1 2 C2.65 2 4.3 2 6 2 C6 3.32 6 4.64 6 6 C4.68 6.33 3.36 6.66 2 7 C4.97 7.495 4.97 7.495 8 8 C7.67 8.66 7.34 9.32 7 10 C4.6875 10.25 4.6875 10.25 2 10 C0.125 8.375 0.125 8.375 -1 6 C-0.6875 2.75 -0.6875 2.75 0 0 Z " fill="#211851" transform="translate(98,94)"/>
<path d="M0 0 C11.89771646 -0.57159848 11.89771646 -0.57159848 17 3 C18.875 5.1875 18.875 5.1875 20 7 C14.37699681 5.21086262 14.37699681 5.21086262 12.15625 3.96875 C9.48106359 2.76685466 7.16837577 2.58345541 4.25 2.375 C2.77273437 2.26285156 2.77273437 2.26285156 1.265625 2.1484375 C0.51796875 2.09945312 -0.2296875 2.05046875 -1 2 C-0.67 1.34 -0.34 0.68 0 0 Z " fill="#29178F" transform="translate(68,51)"/>
<path d="M0 0 C2.79872437 2.52788007 4.45773019 4.20411134 5 8 C4.01 8 3.02 8 2 8 C2.28284018 9.77226453 2.57660498 11.542788 2.875 13.3125 C3.03742188 14.29863281 3.19984375 15.28476563 3.3671875 16.30078125 C3.88085454 19.20059827 3.88085454 19.20059827 6 22 C2.125 20.125 2.125 20.125 1 19 C0.93966808 15.62895369 0.97982943 12.27270523 1.0390625 8.90234375 C1.07453123 5.65695475 1.03451899 3.10355696 0 0 Z " fill="#211751" transform="translate(89,60)"/>
<path d="M0 0 C2.33088789 2.87854637 3.83224797 5.61984828 5.1875 9.0625 C5.53167969 9.91972656 5.87585938 10.77695313 6.23046875 11.66015625 C7 14 7 14 7 17 C4.03 17 1.06 17 -2 17 C-2 16.67 -2 16.34 -2 16 C0.31 16 2.62 16 5 16 C4.71125 15.39671875 4.4225 14.7934375 4.125 14.171875 C3.75375 13.37265625 3.3825 12.5734375 3 11.75 C2.62875 10.96109375 2.2575 10.1721875 1.875 9.359375 C1 7 1 7 1 3 C0.34 3 -0.32 3 -1 3 C-0.67 2.01 -0.34 1.02 0 0 Z " fill="#27177F" transform="translate(120,89)"/>
<path d="M0 0 C2.8125 0.1875 2.8125 0.1875 6 1 C7.9375 3.25 7.9375 3.25 9 6 C8.6875 8.8125 8.6875 8.8125 8 11 C5.20949918 9.60474959 4.53075066 7.69412117 3 5 C2.443125 4.071875 1.88625 3.14375 1.3125 2.1875 C0.879375 1.465625 0.44625 0.74375 0 0 Z " fill="#1E1A34" transform="translate(82,57)"/>
<path d="M0 0 C0.99 0 1.98 0 3 0 C3 0.99 3 1.98 3 3 C3.66 3 4.32 3 5 3 C5.33 4.32 5.66 5.64 6 7 C8.01822917 7.45572917 10.03645833 7.91145833 12.0546875 8.3671875 C14 9 14 9 16 11 C13.99279077 10.71325582 11.99369031 10.36920191 10 10 C8.96875 9.814375 7.9375 9.62875 6.875 9.4375 C2.71643642 7.35821821 1.65935062 4.19718099 0 0 Z " fill="#1F1849" transform="translate(100,55)"/>
<path d="M0 0 C0.33 0 0.66 0 1 0 C1 3.63 1 7.26 1 11 C0.01 11.33 -0.98 11.66 -2 12 C-2.05422947 10.5629191 -2.09289723 9.12524538 -2.125 7.6875 C-2.14820313 6.88699219 -2.17140625 6.08648437 -2.1953125 5.26171875 C-2 3 -2 3 0 0 Z " fill="#291697" transform="translate(41,82)"/>
<path d="M0 0 C0.66 0 1.32 0 2 0 C2 3.96 2 7.92 2 12 C1.01 12 0.02 12 -1 12 C-0.67 8.04 -0.34 4.08 0 0 Z " fill="#1D1C24" transform="translate(43,83)"/>
<path d="M0 0 C0.33 0 0.66 0 1 0 C1.268125 0.94875 1.53625 1.8975 1.8125 2.875 C2.74986588 6.25267273 2.74986588 6.25267273 6 8 C6 8.99 6 9.98 6 11 C1.42004773 9.55369928 1.42004773 9.55369928 -0.375 7.1875 C-1.1508614 4.4719851 -0.74778098 2.69201151 0 0 Z " fill="#1E1A31" transform="translate(81,76)"/>
<path d="M0 0 C5.94 0 11.88 0 18 0 C16.68 1.32 15.36 2.64 14 4 C13.67 3.01 13.34 2.02 13 1 C8.71 1 4.42 1 0 1 C0 0.67 0 0.34 0 0 Z " fill="#2B16A2" transform="translate(31,77)"/>
<path d="M0 0 C1.890625 0.24609375 1.890625 0.24609375 4 1 C5.046875 2.84765625 5.046875 2.84765625 5.75 5.0625 C5.99234375 5.79597656 6.2346875 6.52945313 6.484375 7.28515625 C6.65453125 7.85105469 6.8246875 8.41695312 7 9 C5.02 9.66 3.04 10.32 1 11 C1.32552083 9.01432292 1.65104167 7.02864583 1.9765625 5.04296875 C2.19577848 2.68244176 2.19577848 2.68244176 0 0 Z " fill="#291984" transform="translate(93,95)"/>
<path d="M0 0 C1.65 0 3.3 0 5 0 C5.66 1.65 6.32 3.3 7 5 C4.0625 4.1875 4.0625 4.1875 1 3 C0.67 2.01 0.34 1.02 0 0 Z " fill="#29178C" transform="translate(97,77)"/>
</svg>
